<?xml version="1.0" encoding="UTF-8"?>
<!DOCTYPE svg PUBLIC "-//W3C//DTD SVG 1.1//EN" "http://www.w3.org/Graphics/SVG/1.1/DTD/svg11.dtd">
<!-- Creator: CorelDRAW 2021 (64-Bit) -->
<svg xmlns="http://www.w3.org/2000/svg" xml:space="preserve" width="0.223189in" height="0.195976in" version="1.1" style="shape-rendering:geometricPrecision; text-rendering:geometricPrecision; image-rendering:optimizeQuality; fill-rule:evenodd; clip-rule:evenodd"
viewBox="0 0 7.79 6.84"
 xmlns:xlink="http://www.w3.org/1999/xlink"
 xmlns:xodm="http://www.corel.com/coreldraw/odm/2003">
 <defs>
  <style type="text/css">
   <![CDATA[
    .fil0 {fill:#030303}
    .fil2 {fill:#EEEEEE}
    .fil1 {fill:#FDFDFD}
   ]]>
  </style>
 </defs>
 <g id="Layer_x0020_1">
  <metadata id="CorelCorpID_0Corel-Layer"/>
  <g id="_2744637722176">
   <path class="fil0" d="M2.05 3.43l-0.06 -0.02c0.01,-0.08 0.07,-0.17 0.09,-0.24 0.04,-0.11 0.07,-0.16 0.1,-0.24 0.01,-0.03 0.02,-0.06 0.03,-0.09 0.01,-0.03 0.02,-0.06 0.03,-0.09 0.04,-0.16 0.13,-0.32 0.17,-0.5 0.01,-0.04 0.01,-0.06 0.02,-0.09 0.01,-0.04 0.02,-0.05 -0.04,-0.05l-0.04 0.08c-0.02,0.02 -0.03,0.05 -0.05,0.07 -0.02,0.04 -0.03,0.04 -0.05,0.07 -0.02,0.02 -0.02,0.08 -0.04,0.08 -0.02,-0.06 0.07,-0.25 0.05,-0.32 -0.06,-0 -0.12,-0 -0.18,-0 -0.09,-0.01 -0.09,-0.03 -0.16,0.02 0.01,0.11 0.07,0.06 -0.03,0.19l-0.09 0.14c-0,0 -0,0 -0,0 -0.01,0.01 -0,0.01 -0.01,0.01 -0,-0.09 0.05,-0.24 0.05,-0.29 -0.04,0 -0.15,0.1 -0.19,0.13 -0.16,0.11 -0.36,0.35 -0.48,0.51 -0.02,0.03 -0.05,0.06 -0.07,0.09l-0.06 0.1c-0.09,0.13 -0.17,0.27 -0.24,0.42 -0.02,0.03 -0.04,0.07 -0.06,0.11 -0.02,0.05 -0.03,0.07 -0.05,0.11 -0.04,0.07 -0.07,0.15 -0.1,0.23l-0.14 0.35c-0.02,0.04 -0.03,0.08 -0.04,0.13 -0.03,0.08 -0.06,0.16 -0.08,0.25l-0.21 0.78c-0.01,0.05 -0.02,0.09 -0.03,0.13 -0.01,0.04 -0.02,0.1 -0.02,0.16 0.06,-0.01 0.1,-0.09 0.16,-0.1 -0.01,0.07 -0.07,0.27 -0.09,0.34 -0.05,0 -0.06,-0.02 -0.1,-0.02 -0.03,0.24 -0.02,0.21 0.13,0.29 0.06,0.03 0.25,0.14 0.3,0.15 0.04,-0.05 0.16,-0.21 0.18,-0.27 0.01,-0.03 -0.02,-0.07 -0.01,-0.13 0.04,-0.01 0.06,0.01 0.09,0.01l0.09 -0.14c0.03,-0.05 0.06,-0.1 0.09,-0.14 0.03,-0.05 0.05,-0.09 0.08,-0.15 0.01,-0.02 0.03,-0.05 0.04,-0.07 0.02,-0.02 0.02,-0.05 0.04,-0.07 0.03,-0.05 0.05,-0.1 0.08,-0.15 0.01,-0.02 0.03,-0.04 0.04,-0.07 0.01,-0.03 0.02,-0.05 0.04,-0.08l0.16 -0.3 0.25 -0 0 0.09c0.13,0.01 0.19,-0.05 0.27,0 0.03,0.03 0.04,0.02 0.07,0.04 -0,0.07 -0.12,0.04 -0.09,0.16 0.15,0.04 0.25,-0.08 0.36,-0.07 0.09,0.14 -0.01,0.07 -0,0.17 0.05,0 0.06,-0.03 0.1,-0.05 0.03,0.01 0.04,0.02 0.07,0.02l0.19 0.01c0.05,-0 0.09,-0.04 0.14,-0.05 0.08,-0.03 0,0.04 0.23,-0.07 0.07,-0.03 0.06,-0.02 0.12,-0.08 0.04,-0.04 0.16,-0.17 0.17,-0.21 0.03,-0.09 -0.07,-0.22 0.08,-0.18 0.07,0.02 0.13,0.04 0.19,0l0.02 -0.02c0,-0 0,-0 0,-0 0,-0 0,-0 0,-0 -0.01,-0.01 -0,-0 -0.01,-0.01 -0.02,-0.01 -0.04,-0.01 -0.05,-0.04 0.01,-0.01 0.02,-0 0.03,-0.03 -0.04,-0.04 -0.08,-0.02 -0.18,-0.14 -0.05,-0.07 -0.1,-0.11 -0.2,-0.12l-0 -0.06c0.02,0 0.08,0.01 0.1,0.02 0.08,0.02 0.26,0.06 0.34,0.05 0.01,-0.01 0.01,-0.01 0.02,-0.02 0.01,-0.01 0.02,-0.01 0.02,-0.03 0,-0.03 -0.03,-0.03 -0.01,-0.07 0.03,-0.05 0.03,-0.04 0.04,-0.1 0,-0.01 0,-0.02 0,-0.02 0,-0 0,-0 0,-0.01l0.01 -0.02c0.05,-0 0.04,0.05 0.08,0.06 0.03,-0.07 -0.04,-0.07 -0.06,-0.12 0,-0.06 0.01,-0.11 0.02,-0.17 0.01,-0.06 0.02,-0.12 0.02,-0.18 0.01,-0.06 0.04,-0.37 0.06,-0.43 0.01,-0.02 0.03,-0.03 0.05,-0.05l1.36 -0.81c0.27,-0.16 0.2,-0.16 0.41,-0.11 0.25,0.06 0.56,-0.04 0.76,-0.2 0.09,-0.08 0.12,-0.11 0.19,-0.21 0.02,-0.03 0.03,-0.12 0.03,-0.17 -0,-0.01 -0.02,-0.07 -0.02,-0.08 -0.01,-0.02 -0.04,-0.03 -0.05,-0.05 -0.03,-0.05 -0.05,-0.07 -0.09,-0.1 -0.06,-0.05 -0.06,-0.04 -0.16,-0.04 -0.11,-0 -0.29,-0.01 -0.38,0.03 -0,0.12 -0.04,0.26 -0.1,0.36 -0.02,0.04 -0.06,0.05 -0.09,0.06 -0.16,0.07 -0.36,0.16 -0.53,0.24l-0.42 0.19c-0.08,0.03 -0.26,0.14 -0.33,0.14 0.01,-0.05 0.15,-0.29 0.19,-0.35l0.21 -0.39c0.02,-0.03 -0,-0.01 0.02,-0.02 0.06,-0.03 0.46,-0.12 0.57,-0.15 0.14,-0.04 0.39,-0.1 0.52,-0.12 0.11,-0.02 0.22,-0.02 0.34,-0.03 -0.02,-0.05 -0.09,-0.05 -0.14,-0.06 -0.23,-0.09 -0.57,-0.24 -0.81,-0.24 -0.24,-0 -0.47,0.03 -0.67,0.16 -0.06,0.04 -0.16,0.08 -0.2,0.12 -0.05,0.05 -0.13,0.08 -0.18,0.13l-0.23 0.19c-0.02,0.02 -0.03,0.03 -0.05,0.06 -0.02,0.02 -0.04,0.03 -0.06,0.05 -0.02,0.25 -0.07,0.47 -0.09,0.72 -0,0.03 -0.01,0.05 -0.01,0.08 -0.02,0.12 -0.06,0.59 -0.08,0.62l-0.43 0.25c-0.01,0.01 -0.03,0.02 -0.04,0.03 -0.02,0.01 -0.03,0.01 -0.05,0.02 -0.03,0.02 -0.05,0.03 -0.08,0.05l-0.43 0.26c-0.03,0.02 -0.05,0.03 -0.07,0.07 -0.02,0.03 -0.04,0.04 -0.07,0.07 -0.02,0.03 -0.04,0.05 -0.06,0.08 -0.02,0.03 -0.04,0.06 -0.06,0.08 0,0.04 0.02,0.08 0.07,0.08 0.06,0 0.09,0.01 0.14,0.01 -0,0.01 -0.01,0.01 -0.02,0.02l-0.02 0.04c-0.03,0 -0.07,-0 -0.1,0.01 -0.03,0.01 -0.05,0.02 -0.09,0.02 -0.08,0.01 -0.11,0 -0.17,-0.03l0.11 -0.22c0.02,-0.06 0.03,-0.06 0.03,-0.13 0,-0.05 0.01,-0.13 -0,-0.17 -0.09,-0.01 -0.2,-0.05 -0.27,-0.1 0,-0.03 0.37,-0.68 0.41,-0.75 0.09,-0.17 0.19,-0.33 0.28,-0.5 0.07,-0.15 0.2,-0.34 0.28,-0.5 0.02,-0.04 0.05,-0.08 0.07,-0.12 0.02,-0.04 0.05,-0.08 0.07,-0.12 0.05,-0.08 0.09,-0.16 0.14,-0.25 0.05,-0.09 0.08,-0.17 0.14,-0.25 0.06,-0.1 0.22,-0.42 0.28,-0.49 0.16,-0.19 0.34,-0.14 0.49,0.05 0.1,0.12 0.21,0.35 0.29,0.49 0.04,0 0.15,-0.06 0.18,-0.08 0.04,-0.02 0.06,-0.02 0.11,-0.03 0.02,-0.01 0.03,-0.01 0.05,-0.02 0.04,-0.02 0.02,0 0.05,-0.02 -0.01,-0.03 -0.3,-0.53 -0.34,-0.58 -0.09,-0.13 -0.23,-0.2 -0.37,-0.26 -0.08,-0.03 -0.18,-0.03 -0.27,-0.03 -0.2,0 -0.38,0.1 -0.49,0.21 -0.01,0.01 -0.01,0.01 -0.02,0.02 -0.03,0.03 -0.08,0.11 -0.11,0.14 -0.08,0.14 -0.18,0.27 -0.26,0.41 -0.02,0.04 -0.04,0.06 -0.05,0.11l-0.16 0.27c-0.04,0.07 -0.07,0.17 -0.11,0.22 -0.03,0.04 -0.18,0.32 -0.2,0.38 -0.02,0.05 -0.04,0.07 -0.06,0.11 -0.02,0.04 -0.01,0.1 -0.01,0.16 -0,0.07 -0.11,0.42 -0.14,0.53 -0.02,0.09 -0.06,0.15 -0.1,0.23 -0.02,0.05 -0.02,0.08 -0.04,0.13 -0.03,0.09 -0.05,0.17 -0.09,0.25 -0.01,0.03 -0.04,0.09 -0.04,0.12 -0.01,0.05 -0.01,0.09 -0.04,0.13z"/>
   <path class="fil0" d="M5.29 2.22c0.01,0.06 0.1,0.2 0.13,0.25l0.07 0.12c0.03,0.04 0.05,0.08 0.07,0.12 0.1,0.16 0.18,0.32 0.28,0.47 0.05,0.08 0.09,0.15 0.14,0.23 0.04,0.08 0.09,0.16 0.14,0.24 0.05,0.08 0.09,0.16 0.14,0.24l0.14 0.24c0.04,0.08 0.09,0.15 0.14,0.23l0.28 0.47c0.09,0.16 0.19,0.31 0.28,0.47 0.03,0.05 0.05,0.08 0.07,0.11l0.22 0.36c0.13,0.21 0.13,0.38 -0.01,0.58 -0.02,0.03 -0.04,0.05 -0.06,0.08 -0.13,-0 -0.06,0.11 -0.17,0.06l-0.02 -0.01c-0,-0.08 0,-0.16 0,-0.24 0,-0.08 0,-0.16 0.01,-0.24 0.04,-0.04 0.09,-0.02 0.14,-0.07 0.01,-0.02 -0.06,-0.15 -0.07,-0.17 -0.03,-0.02 -0.05,-0.02 -0.09,-0.03l-0.09 -0.04 -0.02 -0.03c-0.02,-0.03 -0.07,-0.04 -0.1,-0.06 -0.08,-0.04 -0.09,-0.08 -0.19,-0.12 -0.04,-0.02 -0.09,-0.05 -0.13,-0.08 -0.02,-0.01 -0.05,-0.02 -0.08,-0.03 -0.08,-0.04 -0.04,-0.03 -0.14,-0.07 -0.15,-0.05 -0.16,-0.06 -0.29,-0.13 -0.02,-0.01 -0.05,-0.03 -0.07,-0.04 -0.08,-0.04 -0.08,0.02 -0.09,-0.09 -0,-0.03 -0.01,-0.04 -0.01,-0.08 0.12,-0.08 0.1,-0.06 0.13,-0.18 0.01,-0.05 -0,-0.04 0.03,-0.08 0.03,-0.03 0.07,-0.06 0.08,-0.13 0.01,-0.05 -0.02,-0.15 -0.05,-0.17 -0.04,0.02 -0.05,0.14 -0.11,0.14 0,-0.02 0.03,-0.07 0.04,-0.1l0.03 -0.13c0.02,-0.06 -0,-0.23 -0.02,-0.28 -0.02,-0.02 -0.06,-0.03 -0.1,-0.05l-0.2 -0.09c-0.04,-0.02 -0.05,-0.04 -0.08,-0.07 -0.08,-0.08 -0.22,-0.2 -0.39,-0.19 0,0.03 -0,0 0.01,0.02l0.01 0.02c-0.02,0.01 -0.03,0.01 -0.04,0.03 -0,0 -0,0 -0,0l-0.01 0.02 -0.13 -0 0.01 0.04c-0.02,0.01 -0.03,0 -0.04,0.02l0.06 0.01 -0.01 0.04 0.05 0.01c0.01,0.02 0.01,0.02 0.03,0.03 0,0 0,0 0.01,0 -0.02,0.01 -0.01,0 -0.02,0.02 0.01,0 0.03,-0 0.03,0 0.04,0 0.02,0.01 0.03,0.01 0.03,0.01 0.04,-0 0.07,-0 0.01,0.02 0.02,0.03 0.02,0.06 -0.03,-0 -0.11,-0.02 -0.14,-0.02 -0.05,-0.02 -0.05,-0.04 -0.13,-0.04 0.01,0.05 0.03,0.03 0.04,0.06l-0.08 0.01c0.01,0.02 0.03,0.01 0.03,0.03l-0.03 0.01c-0.01,0.01 -0.01,0 -0.02,0.01 0.02,0.02 0.04,0.02 0.07,0.04 -0.01,0.02 -0.01,0.02 -0.03,0.03 -0.04,0.04 -0.06,0.03 -0.11,0.05 -0.04,0.01 -0.02,0.02 -0.08,0.03 -0.03,0.01 -0.07,0 -0.1,0.02l0.04 0.07c0,0 0,0 0.01,0l-0.03 0.04 -0.06 -0.01 -0 0.02c-0,0.01 0,0.01 -0,0.02 -0.03,-0 -0.05,-0.01 -0.07,0 -0,0 0.02,0.01 -0.02,0.01 -0.02,-0 -0.05,-0.04 -0.07,-0.05 -0,0 -0,0 -0,0.01 -0,0 -0,0.01 -0.01,0.01l-0.01 0.01c-0.03,-0.01 -0.06,-0.02 -0.09,0 0,0.04 0.05,0.05 0.08,0.06 0.08,0.03 0.26,0.06 0.36,0.07 0.13,0.02 0.21,0.08 0.33,0.1 0.07,0.01 0.07,-0 0.13,-0.01l0.01 0.04c0,0 0,0 0,0.01l0.09 -0c-0.01,0.04 -0.01,0 -0.02,0.04 0.01,0.01 0.01,0 0.02,0.01 0.01,0.02 -0,0.01 0.01,0.03l0.12 0c-0.02,0.03 -0.04,0.03 -0.08,0.05 -0.01,0 -0.03,0.01 -0.04,0.02 -0.01,0.01 -0.02,0.02 -0.04,0.03 -0.05,0.02 -0.21,-0.01 -0.23,0.01l0.03 0.02c-0.01,0.05 -0,0 -0.01,0.03 0.03,0 0.06,0 0.08,0.02 -0.01,0.03 -0.02,0.01 -0.04,0.04 0.05,0 0.09,-0 0.14,-0 0.04,-0 0.1,0.01 0.13,0.01 0.05,-0.01 0.16,-0.09 0.2,-0.06 -0.01,0.02 -0.01,0.01 -0.03,0.02 -0.04,0.01 -0.1,0.02 -0.08,0.07 -0.04,-0 -0.08,0.01 -0.09,0.01 -0.03,-0 -0.07,-0.02 -0.1,-0.01 -0.02,0.01 0.02,0.02 -0.03,0.01 -0.02,-0 -0.03,-0.01 -0.05,-0.01 -0.05,0.01 0.01,0.01 -0.04,0.01 -0.02,-0 -0.03,-0 -0.06,-0 -0,0 -0,0 -0,0.01l-0 0.04c-0.02,-0 -0.02,-0.01 -0.04,-0.01 -0.04,-0.02 -0.03,-0 -0.05,0 -0.02,0 -0.06,-0.02 -0.09,-0.03l-0 0.06c-0.04,-0 -0.04,-0.03 -0.08,-0.03 -0,0.08 0.07,0.08 0.14,0.1 0.04,0.01 0.04,0.02 0.09,0.02l0.13 0c0.08,0 0.16,-0.01 0.24,-0.03 0.07,-0.02 0.14,-0.06 0.21,-0.07 0.01,0.17 -0.09,0.11 -0.25,0.23 -0.1,0.07 -0.22,0.11 -0.33,0.16 -0.06,0.03 -0.12,0.04 -0.17,0.07 -0.02,0.02 -0.04,0.02 -0.06,0.03l-0.3 0.1c-0.05,0.02 -0.12,0.02 -0.2,0.05 -0.06,0.03 -0.1,0.06 -0.15,0.09 -0.06,0.03 -0.09,0.07 -0.13,0.12 -0.04,0.04 -0.06,0.03 -0.06,0.11 0.04,0 0.06,-0.01 0.08,-0 0.03,0.01 -0.02,0 0.02,0.01 0.03,-0.02 0.06,-0.02 0.1,-0.02 0.03,0 0.04,-0 0.05,0.03 0,0.01 0,0.02 0,0.03 -0,0.08 0.01,0.38 -0,0.41 -0.01,0.02 -0.02,0.01 -0.03,0.03 -0.02,0.03 0,0.03 -0.02,0.04 -0.02,0 -0.01,-0.01 -0.05,-0.06 -0.02,-0.03 -0.02,-0.05 -0.06,-0.05l-0.01 0c-0.03,-0 -0.01,-0.01 -0.04,-0.02 -0.01,0.02 -0,0.01 -0.01,0.03l-0.01 0.02c-0.03,-0.01 -0.02,-0.02 -0.05,-0.04 -0.04,-0.02 -0.03,-0.01 -0.05,0.01 -0.03,0.03 -0.03,0 -0.06,-0 -0.03,-0 -0.03,0.01 -0.07,0.02 -0.03,-0.02 -0.01,-0.03 -0.06,-0.04l-0.08 -0.01 0 -0.71c0.11,-0.06 0.04,-0.08 0.09,-0.14 0.05,-0.06 0.08,-0.04 0.05,-0.16 -0.02,0.01 -0.01,0 -0.02,0.01 -0.02,0.01 -0.03,0.04 -0.05,0.04 0,-0.05 0.07,-0.09 0.05,-0.24 -0,-0.02 -0,-0.04 -0.02,-0.05 -0.03,-0.03 -0.12,-0.06 -0.16,-0.08 -0.04,-0.02 -0.17,-0.19 -0.23,-0.14l-0.03 0.02c-0,0 -0.01,0.01 -0.01,0.02l-0.06 0c-0.04,0.01 -0.01,0.04 0.01,0.05 0.05,0.03 0.02,0.02 0.04,0.04 0.03,0.03 0.03,0 0.06,0.02l0 0.03c-0.07,-0 -0.09,-0.04 -0.14,-0.04 0.01,0.03 0.01,0.01 0.01,0.04 -0.04,0.01 -0.02,-0.01 -0.03,0.02 0.01,0.02 0.01,0.01 0.02,0.03 -0.02,0.05 -0.12,0.06 -0.17,0.07 0,0.02 0.01,0.03 0.02,0.04l0.01 0.01c0,0 0,0 0,0 0,0 0,0 0,0 0.02,0.02 0,-0.02 0.01,0.02 -0.02,0 -0.05,-0.01 -0.06,-0 -0.04,0 -0,-0 -0.03,0.01 -0.03,0.01 -0.04,0.01 -0.06,0l-0.03 -0.01c-0.02,-0.01 -0.04,-0.02 -0.06,-0 0.01,0.02 0.03,0.02 0.05,0.03 0.06,0.03 0.12,0.04 0.18,0.05 0.1,0.01 0.15,0.08 0.26,0.07 0.04,0.02 -0.03,-0.02 0.01,0.01 0.01,0.01 -0.01,0 0.01,0.01 0.02,0.01 0.02,0 0.04,0.01 -0.01,0.04 -0.04,0.02 -0.07,0.01 -0.09,-0.02 -0.19,-0.06 -0.29,-0.04 0,0.02 0.02,0.03 0.04,0.04 0.05,0.04 0.03,-0.01 0.08,0.02 0.04,0.02 0.03,0.02 0.04,0.04 0.03,0 0.08,0.02 0.1,0.02 0.03,0 0.06,-0.01 0.11,-0.01 -0.03,0.04 -0.08,0.03 -0.13,0.03 0.01,0.04 0.01,0.02 0.02,0.06 0,0 0,0 0,0 0.04,0 0.08,0 0.12,0.01 0.04,0 0.06,-0.02 0.11,-0.02 -0.01,0.02 -0,0.01 -0.03,0.02 -0.02,0.01 -0.01,0.02 -0.03,0.03l-0.17 -0c-0.06,0.01 -0.01,0 -0.04,0.02l-0.07 -0.02c-0.01,0 -0.01,0.02 -0.05,0.03 -0,0 -0,0 -0,0 0.02,0.07 0.26,0.07 0.31,0.07 0.12,-0.02 0.13,-0.13 0.11,0.31 -0,0.04 0.01,0.11 0.01,0.16 0,0.04 0.02,0.16 -0.03,0.17l-0.06 -0.01c-0.03,-0.01 -0.03,-0.02 -0.06,-0.03l-0.01 0.05c-0.09,0.01 -0.04,-0.03 -0.1,-0.04 -0.14,-0.04 -0.15,0.05 -0.21,0.05 -0.09,0.01 -0.19,0 -0.28,0 -0,-0.03 -0,-0.06 0.01,-0.08 0.02,-0.06 0.02,-0.06 0.02,-0.13 0.05,-0 0.09,-0.02 0.11,-0.06 -0.03,0.01 -0.02,0.02 -0.06,0.02 -0.05,-0.18 -0.08,-0.15 -0.08,-0.25 0.02,-0.01 0.04,-0.01 0.04,-0.04 -0.03,0 -0.03,0.02 -0.06,0.01 -0.03,-0.01 -0.01,-0.04 -0.05,-0.03l-0.01 0.06c-0.03,0.01 -0.03,0 -0.05,0.02l0.06 0.01c-0,0.05 0,0.03 -0.04,0.05 -0.03,0.02 -0.01,0.02 -0.03,0.05 -0.03,0 -0.07,-0.02 -0.1,-0.03 -0.09,-0.04 -0.06,-0 -0.1,0.01 -0.02,0 -0.07,-0.03 -0.09,-0.04 -0.15,-0.06 -0.11,-0.02 -0.15,0.11 -0.02,-0 -0.02,0.01 -0.02,-0.02 -0,-0.01 0,-0.04 0,-0.05 0.01,-0.03 0.03,-0.05 0.04,-0.09l-0.19 -0.1c-0,0.01 -0.01,0.01 -0.01,0.01 -0.06,0.1 -0.04,0.09 -0,0.16 0.02,0.04 0.01,0.07 0.06,0.07 0.02,0 0.03,-0 0.05,0 0.02,0.05 0.07,0.13 0.14,0.12 0.03,-0.02 0.04,-0.06 0.07,-0.07 0.04,0.04 0,0.08 0.04,0.11 0.03,0.02 0.01,0 0.03,0 0.06,0 0.21,-0.05 0.25,-0.09 0.04,-0.06 -0.03,-0.05 0.01,-0.08 0.05,0.03 -0.01,0.18 -0,0.25 0.02,0.15 -0.02,0.08 -0.11,0.1 -0.05,0.01 -0.08,-0 -0.11,0 -0.03,0 -0.09,0.01 -0.11,0.01 -0.03,0 -0.06,-0.01 -0.11,-0 -0.05,0.01 -0.18,0.02 -0.22,0.01 -0.05,-0.01 -0.06,-0.04 -0.13,-0.06 -0.03,-0 -0.03,-0.01 -0.06,-0.01 -0.03,0.04 -0.02,0.06 -0.08,0.07 -0.05,0 -0.11,-0.01 -0.14,-0l-0.17 -0.01c-0.02,-0.01 -0.03,-0.02 -0.04,-0.04 -0.06,0.01 -0.05,0.02 -0.07,-0.03 -0.07,-0 -0.05,0.02 -0.11,0.03 0,-0.04 0.01,-0.02 0.01,-0.05 -0.05,-0.01 -0.02,0.01 -0.05,0.01 -0.02,-0 -0.03,-0.02 -0.06,-0 -0.03,0.01 -0,0 -0.02,0.03 -0.01,0.02 -0.02,0.01 -0.03,0.02 -0.03,0.03 0.01,0.05 -0.05,0.05 -0,-0 -0,-0.01 -0,-0.01l-0.01 -0.04c-0.03,0.01 -0.04,0.04 -0.06,0.05 -0.13,0.01 -0.24,-0.04 -0.33,-0.1 -0.07,-0.05 -0.13,-0.13 -0.17,-0.2l-0.03 -0.03c-0.04,0.04 -0.07,0.1 -0.09,0.14 -0.03,0.05 -0.06,0.09 -0.09,0.14 -0.04,-0 -0.1,-0.03 -0.14,-0.05 -0.04,-0.02 -0.08,-0.04 -0.13,-0.05 0,0.09 0.14,0.25 0.2,0.29 0.1,0.08 0.2,0.14 0.33,0.17 0.06,0.02 0.14,0.03 0.21,0.04 0.08,0 0.14,0.02 0.22,0.03 0.08,0 0.17,0 0.25,0 0.04,0 0.06,0.01 0.11,0.01 0.98,0 1.95,0 2.93,-0.01l1.53 -0.01c0.3,-0 0.6,-0.02 0.9,-0.02 0.18,-0 0.36,0.01 0.48,-0.06 0.15,-0.09 0.19,-0.11 0.3,-0.24 0.03,-0.04 0.07,-0.12 0.09,-0.18 0.06,-0.14 0.06,-0.36 -0,-0.49l-0.01 -0.02c-0.02,-0.07 -0.02,-0.08 -0.06,-0.15l-0.1 -0.18c-0.02,-0.03 -0.03,-0.06 -0.04,-0.09 -0.01,-0.02 -0.02,-0.03 -0.02,-0.04 -0.01,-0.02 -0.01,-0.04 -0.02,-0.05 -0.02,-0.03 -0.03,-0.05 -0.05,-0.08l-0.14 -0.27c-0.07,-0.11 -0.12,-0.24 -0.19,-0.36 -0.1,-0.18 -0.18,-0.35 -0.29,-0.52 -0.02,-0.03 -0.03,-0.06 -0.05,-0.09 -0.05,-0.08 -0.1,-0.17 -0.15,-0.25l-0.69 -1.21c-0.02,-0.03 -0.03,-0.05 -0.05,-0.08 -0.03,-0.05 -0.12,-0.23 -0.16,-0.25 -0.01,-0.01 -0.19,-0.05 -0.22,-0.05 -0.07,-0.01 -0.13,0.05 -0.19,0.08z"/>
   <path class="fil1" d="M3.96 1.66l-0.13 0.95c-0.02,0.1 -0.04,0.24 -0.04,0.34 0.03,-0.01 0,0.01 0.03,-0.02 0,-0 0.02,-0.02 0.02,-0.02 0.01,-0.01 0.02,-0.02 0.03,-0.04 0.07,-0.09 0.12,-0.14 0.2,-0.24 0.06,-0.07 0.23,-0.25 0.27,-0.32l0.15 -0.28c0.02,-0.04 0.04,-0.06 0.05,-0.09 0.03,-0.07 0.07,-0.13 0.1,-0.19 0.02,-0.03 0.1,-0.16 0.1,-0.19 -0.02,0 -0.06,0.02 -0.09,0.03 -0.06,0.02 -0,0.01 -0.13,0.05 -0.07,0.02 -0.04,0.02 -0.14,0.04 -0.26,0.06 -0.36,-0.01 -0.43,-0.01z"/>
   <path class="fil1" d="M3.88 2.94c0.06,-0.01 0.48,-0.28 0.59,-0.34l0.58 -0.34c0.04,-0.02 0.07,-0.04 0.12,-0.07l0.23 -0.14c0.02,-0.01 0.03,-0.03 0.05,-0.04 0.02,-0.02 0.04,-0.03 0.05,-0.04 0.06,-0.04 0.16,-0.14 0.18,-0.2 -0.07,0.01 -0.41,0.19 -0.52,0.23 -0.05,0.02 -0.08,0.04 -0.13,0.06 -0.04,0.02 -0.08,0.04 -0.12,0.06 -0.16,0.07 -0.37,0.18 -0.51,0.23 -0.08,0.03 -0.21,0.22 -0.27,0.29 -0.03,0.04 -0.06,0.07 -0.09,0.1 -0.03,0.05 -0.15,0.17 -0.17,0.21z"/>
   <path class="fil1" d="M3.01 4.02c0.02,0.01 0.04,0 0.06,0.02 0.03,0.01 0.02,0.02 0.06,0.02 0.05,0.01 0.09,0.01 0.13,0.02 0.04,0.01 0.09,0.01 0.14,0.02 0.02,0 0.04,0.01 0.07,0.01 0.08,-0.02 0.06,-0.05 0.07,-0.09 0,-0.03 0.01,-0.02 0.02,-0.05 0.01,-0.02 0.01,-0.02 0.01,-0.05 0.01,-0.02 0.01,-0.04 0.02,-0.05 0.03,-0.06 0.07,-0.39 0.08,-0.48 0.01,-0.08 0.03,-0.18 0.03,-0.25 -0.03,0.01 -0.03,0.02 -0.05,0.04 -0.02,0.02 -0.03,0.04 -0.05,0.06 -0.02,0.02 -0.03,0.04 -0.04,0.06l-0.32 0.37c-0.03,0.04 -0.06,0.07 -0.09,0.11 -0.05,0.05 -0.09,0.12 -0.12,0.17 -0.02,0.03 -0.04,0.03 -0.03,0.07z"/>
   <path class="fil1" d="M2.51 3.94c0.04,0.02 0.16,0.05 0.21,0.04 0.08,-0.02 0.15,0.02 0.24,0.02 0.02,-0.03 0.05,-0.07 0.08,-0.1 0.03,-0.04 0.01,-0.04 0.02,-0.07l0.21 -0.25c0.03,-0.03 0.05,-0.07 0.08,-0.1 0.04,-0.04 0.24,-0.27 0.25,-0.31 -0.05,0.01 -0.51,0.29 -0.59,0.34l-0.22 0.13c-0.09,0.05 -0.07,0.06 -0.1,0.08 -0.03,0.02 -0.02,0 -0.04,0.02 -0.02,0.02 0.01,0 -0.05,0.06 -0.06,0.06 -0.1,0.07 -0.09,0.14z"/>
   <path class="fil1" d="M5.54 5.98c-0.07,0 -0.09,0.02 -0.15,0.03 -0.03,0.01 -0.03,0 -0.04,0.02 -0.01,0.02 -0.02,0.46 -0.01,0.48 0.02,0.02 0.2,-0 0.25,-0.01 0.03,-0 0.06,0 0.09,-0l0.04 -0.35c0,-0.04 0.03,-0.14 0.01,-0.17 -0.02,-0.02 -0.13,-0 -0.18,-0z"/>
   <path class="fil1" d="M5.83 6.5c0.03,0 0.05,0 0.08,-0 0.05,-0.01 0.03,-0 0.07,0 0.04,0 0.12,-0 0.16,-0l-0.01 -0.45c-0.06,-0 -0.08,0.05 -0.13,0.05 0.01,-0.04 0.01,-0 0.02,-0.05 -0.03,0 -0.04,0.01 -0.07,0.03 -0.04,0.02 -0.03,0.03 -0.05,0.02 0.01,-0.02 0.02,-0.03 0.03,-0.04 0.02,-0.02 0.03,-0.02 0.03,-0.05l-0.09 0c-0.02,0.04 -0.05,0.45 -0.05,0.5z"/>
   <path class="fil1" d="M6.79 6.46c0.11,0.03 0.07,0 0.14,0.02 0.04,0.01 0.06,0.02 0.14,0.01l0.01 -0.46c-0.07,0 -0.08,0.03 -0.12,0.03 0,-0.03 0.01,-0.01 0.02,-0.04 -0.05,0 -0.07,0.01 -0.11,0.02 0.01,-0.03 0.01,-0.02 0.03,-0.04 -0.09,0 -0.06,0.01 -0.08,0.2 -0.01,0.07 -0.02,0.2 -0.02,0.27z"/>
   <path class="fil1" d="M1.5 4.47c0.1,0.01 0.09,0.01 0.16,-0.03 0.02,-0.19 0.07,-0.31 0.21,-0.43 0.01,-0.01 0.02,-0.02 0.03,-0.03 0.02,-0.03 0.02,-0.06 0.02,-0.1 -0,-0.07 0.01,-0.04 0.06,-0.06 0,-0.03 -0,-0.09 -0.03,-0.1l-0.01 -0c-0.03,-0.01 -0.05,-0.01 -0.08,-0.01l-0.35 0.77z"/>
   <path class="fil1" d="M2.5 4.24c-0.01,0.03 -0.01,0.07 -0.01,0.11 0.06,0.01 0.06,-0.04 0.16,0.04 0.03,0.02 0.03,0.02 0.05,0.06 0.01,0.02 0.03,0.05 0.04,0.07 0.04,-0 0.12,-0.07 0.12,-0.07 0,-0.09 0.01,-0.09 0.05,-0.14 0.03,-0.03 0.08,-0.06 0.07,-0.12 -0.05,-0 -0.09,-0 -0.13,-0.01 -0.07,-0.01 -0.06,0 -0.1,0.03 -0.03,0.02 -0.15,0.02 -0.25,0.04z"/>
   <path class="fil2" d="M5.08 6.53c0.07,0.01 0.07,-0.03 0.09,-0.07 0.05,-0 0.07,0.02 0.09,-0 0.01,-0.01 0.02,-0.41 0.02,-0.45l-0.05 0.01c-0,-0 -0,-0.01 -0,-0.01l-0 -0.02c-0.02,0 -0.1,0.02 -0.1,0.06 -0.01,0.04 -0.01,0.12 -0.01,0.16 -0.01,0.07 -0.04,0.25 -0.02,0.31z"/>
   <path class="fil1" d="M4.63 6.44c0.02,0.01 0,0 0.02,0.01 0,0 0.02,-0 0.04,0.04 0.05,0 0.04,-0.02 0.07,0.01 0.1,0.08 0.07,-0.12 0.08,-0.25 0,-0.04 0,-0.09 0,-0.13 0,-0.08 -0.02,-0.05 -0.01,-0.08 0,-0 0.01,-0.01 0.01,-0.03 -0.13,0 -0.13,0.09 -0.15,0.17l-0.07 0.26z"/>
   <path class="fil1" d="M6.21 6.04l0.01 0.45c0.03,0.01 0.07,0.01 0.1,0 0.01,-0.03 0.05,-0.42 0.05,-0.47 -0.06,0.01 -0.06,0.02 -0.1,0.04 -0.01,-0.01 -0,-0.03 -0.01,-0.04 -0.03,0 -0.04,0.01 -0.05,0.02z"/>
   <path class="fil1" d="M6.6 6l0.02 0.42c0.01,0.01 0.02,0.02 0.03,0.03 0.02,0.02 0,0.01 0.02,0.03 0.07,0.01 0.05,0.02 0.06,-0.07 0,-0.05 0.01,-0.09 0.01,-0.14 0,-0.06 0.04,-0.22 0.01,-0.24l-0.01 -0.01c0.01,-0.03 0.01,-0 0.02,-0.04 -0.02,0 -0.06,0.01 -0.08,0.01 -0.05,0.01 -0.03,0 -0.08,0z"/>
   <path class="fil1" d="M6.39 6.49c0.06,0 0.05,0 0.08,-0.03 0.03,-0.03 0.03,-0.02 0.08,-0.04 0,-0.07 -0.01,-0.37 -0.03,-0.43 -0.1,-0.01 -0.07,-0.03 -0.1,0.21 -0.01,0.06 -0.03,0.23 -0.03,0.28z"/>
   <path class="fil1" d="M4.92 6.06c-0,0.08 -0,0.16 -0.01,0.23 -0.01,0.07 -0.01,0.17 -0.01,0.24l0.1 -0.01c0.01,-0.14 0.02,-0.23 0.03,-0.37l0.01 -0.13c-0.06,0 -0.06,0.03 -0.12,0.04z"/>
   <path class="fil1" d="M4.5 6.09c-0,0.08 -0.01,0.29 0.01,0.34l0.03 -0.01c0.03,-0.02 0.02,-0.01 0.03,-0.06 0.02,-0.08 0.09,-0.28 0.09,-0.34 -0.04,0.01 -0.03,0.03 -0.07,0.03 0.01,-0.03 0.03,-0.02 0.03,-0.05 -0.03,0 -0.05,0.02 -0.08,0.03 -0.05,0.02 -0.05,0.01 -0.05,0.07z"/>
   <path class="fil1" d="M0.52 6.12l0.09 -0.34c-0.04,0.01 -0.17,0.12 -0.2,0.15 -0.09,0.1 -0,0.18 0.11,0.19z"/>
  </g>
 </g>
</svg>
